<svg xmlns="http://www.w3.org/2000/svg" id="U1F917" viewBox="0 0 2600 2048"><path transform="translate(0, 1843.2) scale(1,-1)" d="M384 475L266 453Q240 572 240 700L240 700Q240 926 319.50 1117.50Q399 1309 542 1451Q685 1593 878.50 1671.50Q1072 1750 1300 1750L1300 1750Q1528 1750 1721.50 1671.50Q1915 1593 2058 1451Q2201 1309 2280.50 1117.50Q2360 926 2360 700L2360 700Q2360 572 2333 453L2333 453L2216 475Q2240 582 2240 700L2240 700Q2240 903 2169.50 1074.50Q2099 1246 1972.50 1372.50Q1846 1499 1674.50 1569.50Q1503 1640 1300 1640L1300 1640Q1098 1640 926.50 1569.50Q755 1499 628 1372.50Q501 1246 430.50 1074.50Q360 903 360 700L360 700Q360 582 384 475L384 475ZM674-400L674-400Q583-400 478-367Q373-334 279-280Q185-226 125-161.50Q65-97 65-35L65-35Q65-6 76.50 19Q88 44 107 61L107 61Q89 91 79 120.50Q69 150 69 176L69 176Q69 216 86.50 249.50Q104 283 137 298L137 298Q133 313 130.50 328Q128 343 128 356L128 356Q128 415 167.50 457.50Q207 500 265 500L265 500Q282 500 297 496.50Q312 493 326 486L326 486Q343 520 375 541Q407 562 447 562L447 562Q477 562 502 549.50Q527 537 559.50 502.50Q592 468 644 401L644 401L669 369Q684 418 718 448.50Q752 479 801 479L801 479Q869 479 909 430Q949 381 961 283L961 283Q968 232 988 175Q1008 118 1026.50 58.50Q1045-1 1045-61L1045-61Q1045-159 997-235.50Q949-312 865-356Q781-400 674-400ZM668-301L668-301Q791-301 868-230.50Q945-160 945-54L945-54Q945-1 928.50 46Q912 93 893 145.50Q874 198 866 264L866 264Q859 328 840.50 356Q822 384 789 384L789 384Q759 384 743.50 353.50Q728 323 728 279L728 279Q728 261 731 241.50Q734 222 740 203L740 203L710 179Q684 208 653 244.50Q622 281 592 323L592 323L579 341Q523 419 499.50 441Q476 463 452 463L452 463Q430 463 417.50 449.50Q405 436 405 413L405 413Q405 392 447.50 322.50Q490 253 595 144L595 144L551 104Q444 211 395 277Q346 343 324.50 373Q303 403 276 403L276 403Q254 403 241 388Q228 373 228 345L228 345Q228 305 303 227.50Q378 150 494 47L494 47L456 3Q372 71 323.50 117.50Q275 164 249 187.50Q223 211 205 211L205 211Q168 211 168 171L168 171Q168 142 210 97.50Q252 53 309 9Q366-35 409-63L409-63L379-114Q315-79 269.50-38.50Q224 2 198 2L198 2Q165 2 165-29L165-29Q165-68 215.50-114.50Q266-161 345-203.50Q424-246 510-273.50Q596-301 668-301ZM1300-350L1300-350Q1188-350 1084-330Q980-310 885-273L885-273L963-183Q1123-240 1300-240L1300-240Q1477-240 1637-183L1637-183L1715-273Q1621-310 1516.50-330Q1412-350 1300-350ZM839 931L729 931Q729 1036 788.50 1104.50Q848 1173 942 1173L942 1173Q1005 1173 1061 1138Q1117 1103 1154 1041L1154 1041L1060 985Q1013 1063 942 1063L942 1063Q896 1063 867.50 1026.50Q839 990 839 931L839 931ZM1196 502L1196 502Q1068 502 938.50 535Q809 568 686 630L686 630L729 732Q847 672 964 642Q1081 612 1196 612L1196 612Q1400 612 1578 705.50Q1756 799 1889 977L1889 977L1977 911Q1828 712 1627 607Q1426 502 1196 502ZM1926-400L1926-400Q1819-400 1735-356Q1651-312 1603-235.50Q1555-159 1555-61L1555-61Q1555-1 1573.50 58.50Q1592 118 1612.50 175Q1633 232 1639 283L1639 283Q1650 374 1688 426.50Q1726 479 1799 479L1799 479Q1849 479 1882.50 448.50Q1916 418 1931 369L1931 369L1956 401Q2008 468 2040.50 502.50Q2073 537 2098.50 549.50Q2124 562 2153 562L2153 562Q2194 562 2226 541Q2258 520 2274 486L2274 486Q2288 493 2303.50 496.50Q2319 500 2335 500L2335 500Q2394 500 2433 457.50Q2472 415 2472 356L2472 356Q2472 343 2470 328Q2468 313 2463 298L2463 298Q2496 283 2513.50 249.50Q2531 216 2531 176L2531 176Q2531 150 2521 120.50Q2511 91 2493 61L2493 61Q2513 44 2524 19Q2535-6 2535-35L2535-35Q2535-97 2475-161.50Q2415-226 2321-280Q2227-334 2122-367Q2017-400 1926-400ZM1932-301L1932-301Q2004-301 2090-273.50Q2176-246 2255-203.50Q2334-161 2384.50-114.50Q2435-68 2435-29L2435-29Q2435 2 2402 2L2402 2Q2377 2 2331.50-38.50Q2286-79 2221-114L2221-114L2191-63Q2235-35 2291.50 9Q2348 53 2390 97.50Q2432 142 2432 171L2432 171Q2432 211 2395 211L2395 211Q2378 211 2351.50 187.50Q2325 164 2276.50 117.50Q2228 71 2144 3L2144 3L2106 47Q2222 150 2297 227.50Q2372 305 2372 345L2372 345Q2372 373 2359.50 388Q2347 403 2324 403L2324 403Q2298 403 2276 373Q2254 343 2205.50 277Q2157 211 2049 104L2049 104L2005 144Q2110 253 2152.50 322.50Q2195 392 2195 413L2195 413Q2195 436 2182.50 449.50Q2170 463 2148 463L2148 463Q2124 463 2100.50 441Q2077 419 2021 341L2021 341L2008 323Q1978 281 1947 244.50Q1916 208 1890 179L1890 179L1860 203Q1866 222 1869 241.50Q1872 261 1872 279L1872 279Q1872 323 1856.50 353.50Q1841 384 1811 384L1811 384Q1778 384 1760 356Q1742 328 1734 264L1734 264Q1726 198 1706.50 145.50Q1687 93 1671 46Q1655-1 1655-54L1655-54Q1655-160 1732-230.50Q1809-301 1932-301ZM1479 1048L1479 1048L1369 1056Q1377 1158 1438 1222Q1499 1286 1588 1286L1588 1286Q1650 1286 1706 1254Q1762 1222 1803 1165L1803 1165L1714 1101Q1659 1176 1588 1176L1588 1176Q1543 1176 1513.50 1141.50Q1484 1107 1479 1048Z"/></svg>